<svg width="19" height="19" viewBox="0 0 19 19" fill="none" xmlns="http://www.w3.org/2000/svg">
<path fill-rule="evenodd" clip-rule="evenodd" d="M9.52722 2.60462C8.15659 3.80075 6.14855 4.78994 4.45571 4.78994C4.41593 4.78994 4.37778 4.80574 4.34965 4.83387C4.32152 4.862 4.30571 4.90015 4.30571 4.93994V10.1899C4.30571 11.9065 4.89944 13.1628 5.83845 14.1245C6.7938 15.103 8.1337 15.8028 9.65406 16.3278L9.66765 16.3327C9.69948 16.3445 9.73437 16.3452 9.76662 16.3347C11.2823 15.806 12.6195 15.1047 13.5735 14.1258C14.512 13.163 15.1057 11.9065 15.1057 10.1899V4.93994C15.1057 4.90015 15.0899 4.862 15.0618 4.83387C15.0336 4.80574 14.9955 4.78994 14.9557 4.78994C13.2633 4.78994 11.2628 3.80869 9.88414 2.60457C9.83418 2.56262 9.771 2.5396 9.70571 2.5396C9.64039 2.5396 9.57719 2.56264 9.52722 2.60462ZM8.74597 1.69376C9.0135 1.46518 9.35383 1.3396 9.70571 1.3396C10.0576 1.3396 10.3979 1.46518 10.6655 1.69376L10.6707 1.6982L10.6706 1.69823C11.9168 2.78778 13.6495 3.58994 14.9557 3.58994C15.3138 3.58994 15.6571 3.73217 15.9103 3.98534C16.1635 4.23852 16.3057 4.5819 16.3057 4.93994V10.1899C16.3057 12.2234 15.5869 13.7794 14.4329 14.9634C13.2952 16.1307 11.7611 16.9103 10.1582 17.469L10.1533 17.4707L10.1533 17.4707C9.86179 17.5695 9.54539 17.5657 9.25648 17.46C7.65147 16.9052 6.11749 16.128 4.97985 14.9629C3.82449 13.7796 3.10571 12.2234 3.10571 10.1899V4.93994C3.10571 4.58189 3.24795 4.23852 3.50112 3.98534C3.75429 3.73217 4.09767 3.58994 4.45571 3.58994C5.76155 3.58994 7.50168 2.78067 8.74098 1.69807L8.74595 1.69373L8.74597 1.69376Z" fill="#030612"/>
<path fill-rule="evenodd" clip-rule="evenodd" d="M9.70571 5.83984C10.0371 5.83984 10.3057 6.10847 10.3057 6.43984V9.43984C10.3057 9.77121 10.0371 10.0398 9.70571 10.0398C9.37434 10.0398 9.10571 9.77121 9.10571 9.43984V6.43984C9.10571 6.10847 9.37434 5.83984 9.70571 5.83984Z" fill="#030612"/>
<path fill-rule="evenodd" clip-rule="evenodd" d="M9.10571 12.4398C9.10571 12.1085 9.37434 11.8398 9.70571 11.8398H9.71321C10.0446 11.8398 10.3132 12.1085 10.3132 12.4398C10.3132 12.7712 10.0446 13.0398 9.71321 13.0398H9.70571C9.37434 13.0398 9.10571 12.7712 9.10571 12.4398Z" fill="#030612"/>
</svg>
