<svg width="5" height="6" viewBox="0 0 5 6" fill="none" xmlns="http://www.w3.org/2000/svg">
<path fill-rule="evenodd" clip-rule="evenodd" d="M2.5 5.5C2.22386 5.5 2 5.27614 2 5L2 1C2 0.723858 2.22386 0.5 2.5 0.5C2.77614 0.5 3 0.723858 3 1L3 5C3 5.27614 2.77614 5.5 2.5 5.5Z" fill="#030612"/>
<path fill-rule="evenodd" clip-rule="evenodd" d="M4.37115e-08 3C6.78526e-08 2.72386 0.223858 2.5 0.5 2.5L4.5 2.5C4.77614 2.5 5 2.72386 5 3C5 3.27614 4.77614 3.5 4.5 3.5L0.5 3.5C0.223858 3.5 1.95703e-08 3.27614 4.37115e-08 3Z" fill="#030612"/>
</svg>
