<svg width="16" height="16" viewBox="0 0 16 16" fill="none" xmlns="http://www.w3.org/2000/svg">
<path d="M13.5867 2.30634L10.6667 1.33301C10.6667 2.04025 10.3857 2.71853 9.88565 3.21863C9.38555 3.71872 8.70727 3.99967 8.00003 3.99967C7.29278 3.99967 6.61451 3.71872 6.11441 3.21863C5.61431 2.71853 5.33336 2.04025 5.33336 1.33301L2.41336 2.30634C2.11162 2.40687 1.85575 2.61195 1.69193 2.88457C1.52811 3.15719 1.46715 3.47938 1.52003 3.79301L1.90669 6.10634C1.93208 6.26295 2.01248 6.40537 2.13345 6.50802C2.25443 6.61066 2.40804 6.6668 2.56669 6.66634H4.00003V13.333C4.00003 14.0663 4.60003 14.6663 5.33336 14.6663H10.6667C11.0203 14.6663 11.3595 14.5259 11.6095 14.2758C11.8596 14.0258 12 13.6866 12 13.333V6.66634H13.4334C13.592 6.6668 13.7456 6.61066 13.8666 6.50802C13.9876 6.40537 14.068 6.26295 14.0934 6.10634L14.48 3.79301C14.5329 3.47938 14.4719 3.15719 14.3081 2.88457C14.1443 2.61195 13.8884 2.40687 13.5867 2.30634Z" stroke="#030612" stroke-width="1.25" stroke-linecap="round" stroke-linejoin="round"/>
</svg>
