<svg width="16" height="16" viewBox="0 0 16 16" fill="none" xmlns="http://www.w3.org/2000/svg">
<path d="M14 8V4.66667H3.33333C2.97971 4.66667 2.64057 4.52619 2.39052 4.27614C2.14048 4.02609 2 3.68696 2 3.33333C2 2.97971 2.14048 2.64057 2.39052 2.39052C2.64057 2.14048 2.97971 2 3.33333 2H12.6667V4.66667" stroke="#030612" stroke-width="1.25" stroke-linecap="round" stroke-linejoin="round"/>
<path d="M2 3.33301V12.6663C2 13.02 2.14048 13.3591 2.39052 13.6091C2.64057 13.8592 2.97971 13.9997 3.33333 13.9997H14V10.6663" stroke="#030612" stroke-width="1.25" stroke-linecap="round" stroke-linejoin="round"/>
<path d="M12.0001 8C11.6465 8 11.3073 8.14048 11.0573 8.39052C10.8072 8.64057 10.6667 8.97971 10.6667 9.33333C10.6667 9.68696 10.8072 10.0261 11.0573 10.2761C11.3073 10.5262 11.6465 10.6667 12.0001 10.6667H14.6667V8H12.0001Z" stroke="#030612" stroke-width="1.25" stroke-linecap="round" stroke-linejoin="round"/>
</svg>
