<svg width="23" height="23" viewBox="0 0 23 23" fill="none" xmlns="http://www.w3.org/2000/svg">
<path d="M16.8167 18.1L15.1667 10.5833L18.375 7.375C19.75 6 20.2083 4.16667 19.75 3.25C18.8333 2.79167 17 3.25 15.625 4.625L12.4167 7.83333L4.9 6.18333C4.44167 6.09167 4.075 6.275 3.89167 6.64167L3.61667 7.1C3.43333 7.55833 3.525 8.01667 3.89167 8.29167L8.75 11.5L6.91667 14.25H4.16667L3.25 15.1667L6 17L7.83333 19.75L8.75 18.8333V16.0833L11.5 14.25L14.7083 19.1083C14.9833 19.475 15.4417 19.5667 15.9 19.3833L16.3583 19.2C16.725 18.925 16.9083 18.5583 16.8167 18.1Z" stroke="white" stroke-width="1.4" stroke-linecap="round" stroke-linejoin="round"/>
</svg>
