<svg width="16" height="16" viewBox="0 0 16 16" fill="none" xmlns="http://www.w3.org/2000/svg">
<path d="M11.3335 5.33301H12.0002C12.7074 5.33301 13.3857 5.61396 13.8858 6.11406C14.3859 6.61415 14.6668 7.29243 14.6668 7.99967C14.6668 8.70692 14.3859 9.3852 13.8858 9.88529C13.3857 10.3854 12.7074 10.6663 12.0002 10.6663H11.3335" stroke="#030612" stroke-width="1.25" stroke-linecap="round" stroke-linejoin="round"/>
<path d="M2 5.33301H11.3333V11.333C11.3333 12.0403 11.0524 12.7185 10.5523 13.2186C10.0522 13.7187 9.37391 13.9997 8.66667 13.9997H4.66667C3.95942 13.9997 3.28115 13.7187 2.78105 13.2186C2.28095 12.7185 2 12.0403 2 11.333V5.33301Z" stroke="#030612" stroke-width="1.25" stroke-linecap="round" stroke-linejoin="round"/>
<path d="M4 1.33301V2.66634" stroke="#030612" stroke-width="1.25" stroke-linecap="round" stroke-linejoin="round"/>
<path d="M6.6665 1.33301V2.66634" stroke="#030612" stroke-width="1.25" stroke-linecap="round" stroke-linejoin="round"/>
<path d="M9.3335 1.33301V2.66634" stroke="#030612" stroke-width="1.25" stroke-linecap="round" stroke-linejoin="round"/>
</svg>
