<svg width="18" height="18" viewBox="0 0 18 18" fill="none" xmlns="http://www.w3.org/2000/svg">
<path fill-rule="evenodd" clip-rule="evenodd" d="M8.9998 2.19999C5.24427 2.19999 2.1998 5.24445 2.1998 8.99999C2.1998 12.7555 5.24427 15.8 8.9998 15.8C12.7553 15.8 15.7998 12.7555 15.7998 8.99999C15.7998 5.24445 12.7553 2.19999 8.9998 2.19999ZM0.799805 8.99999C0.799805 4.47125 4.47107 0.799988 8.9998 0.799988C13.5285 0.799988 17.1998 4.47125 17.1998 8.99999C17.1998 13.5287 13.5285 17.2 8.9998 17.2C4.47107 17.2 0.799805 13.5287 0.799805 8.99999Z" fill="#333640"/>
<path fill-rule="evenodd" clip-rule="evenodd" d="M9 8C9.55228 8 10 8.44772 10 9V12C10 12.5523 9.55228 13 9 13C8.44772 13 8 12.5523 8 12V9C8 8.44772 8.44772 8 9 8Z" fill="#333640"/>
<path fill-rule="evenodd" clip-rule="evenodd" d="M8 6C8 5.44772 8.44772 5 9 5H9.0075C9.55978 5 10.0075 5.44772 10.0075 6C10.0075 6.55228 9.55978 7 9.0075 7H9C8.44772 7 8 6.55228 8 6Z" fill="#333640"/>
</svg>
