<svg width="10" height="14" viewBox="0 0 10 14" fill="none" xmlns="http://www.w3.org/2000/svg">
<path fill-rule="evenodd" clip-rule="evenodd" d="M9 4.66666C9.55228 4.66666 10 5.11437 10 5.66666V12.3333C10 12.8856 9.55228 13.3333 9 13.3333C8.44772 13.3333 8 12.8856 8 12.3333V5.66666C8 5.11437 8.44772 4.66666 9 4.66666Z" fill="#030612"/>
<path fill-rule="evenodd" clip-rule="evenodd" d="M5 0.666656C5.55228 0.666656 6 1.11437 6 1.66666V12.3333C6 12.8856 5.55228 13.3333 5 13.3333C4.44772 13.3333 4 12.8856 4 12.3333V1.66666C4 1.11437 4.44772 0.666656 5 0.666656Z" fill="#030612"/>
<path fill-rule="evenodd" clip-rule="evenodd" d="M1 7.33334C1.55228 7.33334 2 7.78106 2 8.33334V12.3333C2 12.8856 1.55228 13.3333 1 13.3333C0.447715 13.3333 0 12.8856 0 12.3333V8.33334C0 7.78106 0.447715 7.33334 1 7.33334Z" fill="#030612"/>
</svg>
