<svg width="213" height="151" viewBox="0 0 213 151" fill="none" xmlns="http://www.w3.org/2000/svg">
<g opacity="0.5">
<path d="M209.48 95.2407C209.305 97.5084 208.327 99.653 207.964 101.896C207.952 103.297 207.841 104.695 207.631 106.08C206.375 109.659 201.727 112.039 198.627 114.452C192.015 120.483 183.944 124.682 175.211 126.634C169.165 126.895 163.366 129.101 158.674 132.924C156.14 135.433 153.439 137.766 150.588 139.909C146.819 141.965 142.644 143.17 138.359 143.44C129.847 145.284 121.065 145.523 112.466 144.145C108.657 143.007 104.747 142.237 100.792 141.846C97.6563 142.026 94.5501 142.548 91.5282 143.403C82.5726 145.154 73.4564 145.949 64.3328 145.776C55.5117 145.671 46.7481 147.07 37.9073 146.869C37.372 146.857 37.358 147.619 37.8306 147.74C46.0501 149.257 54.3842 150.07 62.7421 150.169C70.507 150.381 78.2572 149.374 85.7098 147.183C90.9385 145.904 96.3914 145.845 101.647 147.009C105.561 147.853 109.35 149.122 113.249 150.012C120.969 151.423 128.891 151.321 136.572 149.713C143.126 149.444 149.485 147.411 154.979 143.828C161.371 138.76 164.965 133.073 173.585 131.491C180.1 130.364 186.283 127.797 191.681 123.978C194.985 121.67 198.082 119.084 201.175 116.517C203.814 113.701 206.991 111.444 210.517 109.877C210.961 109.737 211.348 109.457 211.618 109.078C211.889 108.7 212.03 108.243 212.019 107.778C211.903 103.667 212.103 99.5532 212.618 95.4729C212.65 95.2581 212.638 95.039 212.581 94.8293C212.525 94.6196 212.426 94.4238 212.29 94.2541C212.155 94.0845 211.986 93.9446 211.794 93.8433C211.602 93.742 211.391 93.6815 211.174 93.6654C210.958 93.6494 210.74 93.6783 210.535 93.7502C210.33 93.8221 210.142 93.9355 209.983 94.0834C209.824 94.2313 209.697 94.4104 209.611 94.6095C209.524 94.8086 209.479 95.0235 209.48 95.2407Z" fill="#4845DD"/>
<path d="M140.954 89.7279C132.579 90.8147 124.324 92.6818 116.296 95.3048C116.17 95.3434 116.063 95.4268 115.994 95.5393C115.925 95.6518 115.899 95.7856 115.922 95.9155C115.945 96.0455 116.015 96.1625 116.118 96.2446C116.221 96.3268 116.351 96.3683 116.483 96.3614C123.491 95.8566 130.419 94.5547 137.132 92.4809C145.177 90.7595 153.37 89.8273 161.595 89.6977C175.891 89.491 190.299 90.6516 204.557 90.1401C204.819 90.1288 205.069 90.0225 205.259 89.8409C205.448 89.6593 205.566 89.4149 205.589 89.1532C205.612 88.8915 205.539 88.6303 205.384 88.4184C205.228 88.2064 205.001 88.0582 204.745 88.0013C190.518 84.9496 175.868 84.3996 161.452 86.3757C154.587 87.1711 147.73 88.3595 140.954 89.7279Z" fill="#4845DD"/>
<path d="M16.1299 60.4187C17.4565 65.7598 27.9496 63.0382 31.5021 62.3397C40.888 59.92 50.6934 59.6089 60.2139 61.4288C60.3191 62.0686 60.5145 62.6902 60.7944 63.275C62.6663 66.3754 64.093 69.7236 65.0326 73.2213C65.0603 73.461 65.1783 73.6812 65.3625 73.8371C65.5467 73.993 65.7833 74.0729 66.0244 74.0606C66.2654 74.0483 66.4927 73.9448 66.6601 73.771C66.8275 73.5972 66.9225 73.3662 66.9258 73.1249C66.9388 70.1303 66.3321 67.1653 65.144 64.4164C64.6064 63.1189 64.0764 61.7737 63.4168 60.5319C62.7893 59.3493 61.3483 58.259 61.1834 56.9074C61.0226 55.5907 58.9819 56.1144 59.4458 57.2186C59.7508 57.9989 59.935 58.8211 59.9921 59.657C53.0868 56.693 45.4822 55.7493 38.0619 56.9353C33.238 57.5571 20.8342 63.5125 16.9293 59.9072C16.8476 59.8417 16.7473 59.8036 16.6427 59.798C16.5382 59.7925 16.4345 59.8199 16.3462 59.8763C16.258 59.9328 16.1897 60.0154 16.1509 60.1127C16.1121 60.21 16.1047 60.317 16.1299 60.4187Z" fill="#4845DD"/>
<path d="M75.3958 3.6531C71.5693 4.91525 67.8769 6.48161 64.0951 7.81691C60.2053 9.19053 56.2099 9.3345 52.3358 10.8869C45.2529 13.7253 39.1692 18.2874 32.0944 21.1263C25.2478 23.314 18.7775 26.5392 12.9091 30.6894C8.63667 34.0825 4.86913 38.0666 1.71989 42.5219C-2.18382 48.2851 1.86445 51.9572 1.26008 58.1559C1.24917 58.2491 1.2572 58.3435 1.28369 58.4335C1.31017 58.5235 1.35456 58.6073 1.4142 58.6797C1.47384 58.7522 1.5475 58.8118 1.63076 58.8551C1.71401 58.8983 1.80515 58.9244 1.89871 58.9315C2.12496 59.7119 2.47504 60.4509 2.93559 61.1203C3.02925 61.2523 3.15498 61.3584 3.30095 61.4286C3.44692 61.4987 3.60832 61.5305 3.76997 61.521C3.93163 61.5116 4.08821 61.4611 4.225 61.3744C4.36179 61.2878 4.47428 61.1677 4.55188 61.0256C6.04509 58.1274 6.80447 55.3814 8.12409 52.86C8.17962 52.894 8.24148 52.9163 8.3059 52.9256C8.37033 52.935 8.43598 52.9311 8.49886 52.9142C8.56174 52.8974 8.62054 52.868 8.67169 52.8277C8.72284 52.7874 8.76526 52.7372 8.79639 52.68C9.28406 51.7383 14.7094 51.3337 15.5646 51.2158C19.5995 50.6591 23.6635 50.4681 27.7228 50.2219C33.9179 50.2449 40.0402 48.8872 45.6448 46.2474C46.2335 45.8897 45.7847 44.8848 45.1188 45.1542C41.8217 46.2062 38.3491 46.5959 34.9009 46.3008C30.4191 46.3949 25.9461 46.7413 21.5032 47.3382C17.8652 47.3676 14.2549 47.9729 10.8063 49.1316C11.3233 48.6136 11.8769 48.1334 12.4627 47.6947C16.5824 44.8504 21.1407 42.7008 25.9561 41.3317C31.4007 39.5436 36.3529 36.4834 41.8694 34.9415C51.1004 32.3603 53.7082 39.4908 57.8192 45.6122C58.0381 45.9373 58.7 45.7928 58.6239 45.3556C57.6259 39.608 56.0421 32.4317 49.6321 30.4131C41.3329 29.5089 33.0054 31.8476 26.3904 36.9403C21.6298 39.7149 6.96993 45.9629 2.77303 53.3122C2.29671 51.3488 2.30415 49.2728 2.7947 47.3129C3.28526 45.3529 4.24426 43.5413 5.58935 42.0336C9.16053 37.4227 13.4639 33.4288 18.3281 30.211C24.5182 26.907 30.9875 24.1552 37.6609 21.9873C43.6564 19.6 49.2954 16.5352 55.4465 14.5091C61.8994 12.3836 68.335 11.1418 74.8849 9.33219C82.7179 6.43204 91.0899 5.27787 99.4155 5.9504C106.374 7.08714 112.88 9.99461 119.825 11.1906C126.27 11.4159 132.684 12.1987 138.994 13.5302C140.191 13.9535 141.127 12.3215 139.919 11.7468C133.726 9.46672 127.354 7.70713 120.869 6.48626C113.589 3.74605 106.095 1.61123 98.4634 0.103531C90.6087 -0.379405 82.7419 0.831112 75.3958 3.6531Z" fill="#4845DD"/>
<path d="M149.272 7.59505C148.987 7.68701 148.746 7.87904 148.591 8.13558C148.437 8.39212 148.382 8.69578 148.434 8.99031C148.487 9.28485 148.645 9.5503 148.878 9.7375C149.112 9.9247 149.405 10.021 149.704 10.0085C150.93 10.0439 153.768 9.35474 154.96 9.54864C157.921 10.0294 158.318 13.8739 159.358 16.1822C160.957 19.7323 162.543 23.2575 164.32 26.727C168.521 35.3222 173.312 43.6161 178.66 51.549C183.562 57.9642 188.851 64.074 194.498 69.8443C200.641 76.6415 205.226 84.4536 211.016 91.4825C211.532 92.1095 212.747 91.7008 212.43 90.8253C206.417 77.014 197.872 64.45 187.237 53.7818C174.261 40.5512 164.383 24.6061 158.315 7.09635C158.206 6.7743 157.994 6.49684 157.713 6.3062C157.431 6.11557 157.095 6.0222 156.755 6.0403C154.192 6.14324 151.664 6.66855 149.272 7.59505Z" fill="#4845DD"/>
<path d="M144.041 16.638C146.085 22.392 148.891 27.8459 152.384 32.8538C154.24 37.7861 157.423 42.1099 161.581 45.3481C161.634 45.3732 161.694 45.3825 161.752 45.375C161.81 45.3675 161.866 45.3434 161.911 45.3057C161.956 45.2679 161.99 45.2181 162.007 45.1619C162.025 45.1058 162.027 45.0457 162.012 44.9887C159.835 39.4407 157.275 34.0512 154.348 28.8595C152.869 23.7064 150.215 18.9666 146.594 15.0125C146.334 14.8009 146.015 14.6765 145.68 14.657C145.346 14.6375 145.014 14.7239 144.731 14.9038C144.448 15.0838 144.23 15.3482 144.106 15.6595C143.982 15.9708 143.96 16.3132 144.041 16.638Z" fill="#4845DD"/>
<path d="M66.5212 82.0861C62.6164 85.1207 58.1356 87.7031 54.4821 91.01C50.9929 94.8502 47.7964 98.9465 44.9196 103.264C39.02 110.918 31.0787 116.751 22.01 120.089C21.8303 120.141 21.6682 120.241 21.5408 120.378C21.4135 120.515 21.3259 120.684 21.2872 120.867C21.1604 125.659 22.059 130.422 23.9229 134.837C23.7692 137.009 24.1145 139.187 24.9323 141.205C25.7501 143.222 27.0188 145.026 28.6412 146.478C28.8734 146.745 29.3442 146.478 29.1312 146.165C20.612 133.625 34.7475 124.776 45.7353 121.715C51.6946 120.27 57.5362 118.376 63.2103 116.05C65.6888 115.239 68.0296 114.055 70.1527 112.541C70.9323 113.939 71.8292 115.268 72.8337 116.514C73.9612 118.081 74.8589 119.802 75.4997 121.623C75.1572 121.43 74.772 121.326 74.379 121.32C73.986 121.314 73.5977 121.406 73.2494 121.588C66.8961 123.833 60.4205 125.714 53.8539 127.224C46.3402 129.925 39.3026 133.451 31.5939 135.659C31.3945 135.723 31.2252 135.858 31.1174 136.038C31.0095 136.218 30.9705 136.431 31.0075 136.637C31.0444 136.843 31.1549 137.029 31.3184 137.16C31.482 137.292 31.6875 137.359 31.897 137.351C40.7715 137.477 47.3452 131.383 55.6955 129.578C62.5473 129.25 69.2961 127.779 75.6622 125.224C75.9518 125.056 76.202 124.828 76.3961 124.555C77.0377 127.45 77.3616 130.407 77.3621 133.372C77.3826 133.575 77.4676 133.767 77.6047 133.918C77.7419 134.07 77.9239 134.173 78.1242 134.214C78.3244 134.254 78.5324 134.23 78.7177 134.144C78.903 134.057 79.0558 133.914 79.1537 133.735C80.8818 128.972 80.831 123.745 79.0109 119.017C77.3853 114.452 72.9632 111.893 70.9922 107.807C70.6833 107.169 69.7097 107.494 69.5611 108.073L69.4618 108.567C68.475 108.743 67.5345 109.118 66.6977 109.67C62.4956 111.85 58.2215 113.908 53.8702 115.788C47.1234 118.698 39.8745 120.227 33.2688 123.445C29.8055 124.982 26.9447 127.616 25.1288 130.942C24.9348 129.149 24.7096 127.358 24.5308 125.566C24.1824 122.047 24.3903 121.717 27.1561 119.821C32.0764 116.449 37.3566 113.658 42.1695 110.075C46.1893 107.002 49.8023 103.431 52.9215 99.4467C57.4946 93.7874 63.3717 89.3159 67.8519 83.5973C68.5137 82.7526 67.4989 81.3256 66.5212 82.0861Z" fill="#4845DD"/>
<path d="M86.3376 102.925C84.2835 104.244 82.1505 105.393 80.0837 106.678C80.0059 106.729 79.9449 106.801 79.9082 106.886C79.8716 106.972 79.8611 107.066 79.878 107.157C79.8949 107.248 79.9384 107.333 80.0032 107.399C80.0679 107.465 80.1509 107.511 80.2417 107.531C84.8925 107.258 89.3251 105.465 92.8585 102.429C93.0459 102.306 93.1876 102.124 93.2617 101.912C93.3358 101.7 93.3383 101.47 93.2687 101.256C93.1991 101.043 93.0613 100.858 92.8765 100.731C92.6917 100.603 92.4702 100.54 92.246 100.551C90.1115 100.846 88.0824 101.661 86.3376 102.925Z" fill="#4845DD"/>
<path d="M99.3924 131.605C98.8827 132.11 99.5004 132.783 100.089 132.66C105.004 131.522 110.057 131.092 115.094 131.383C119.082 131.698 123.094 131.447 127.012 130.639C127.179 130.587 127.328 130.486 127.438 130.349C127.548 130.213 127.615 130.046 127.63 129.871C127.645 129.696 127.607 129.521 127.522 129.367C127.437 129.214 127.308 129.089 127.151 129.01C122.7 126.983 117.796 126.156 112.926 126.611C108.057 127.066 103.391 128.788 99.3924 131.605Z" fill="#4845DD"/>
<path d="M88.7064 38.4941C86.7389 44.482 92.1735 51.5707 95.7208 55.9691C99.5142 61.1512 104.797 65.0535 110.866 67.1554C111.063 67.1955 111.267 67.1705 111.448 67.0842C111.629 66.9979 111.777 66.8549 111.87 66.677C111.962 66.4991 111.995 66.2958 111.962 66.098C111.928 65.9001 111.832 65.7184 111.686 65.5803C107.165 61.6902 103.131 57.2663 99.6744 52.4056C96.4233 47.8662 95.0729 42.3398 91.8333 37.9141C91.6371 37.6459 91.3692 37.4385 91.0603 37.3159C90.7515 37.1933 90.4143 37.1604 90.0875 37.221C89.7608 37.2816 89.4578 37.4332 89.2134 37.6585C88.9691 37.8837 88.7933 38.1734 88.7064 38.4941Z" fill="#4845DD"/>
<path d="M79.9999 45.4999C79.9999 47.9852 77.9852 49.9999 75.4999 49.9999C73.0147 49.9999 71.5 48.9853 71.5 46.5C71.5 44.0147 73.5147 42 76 42C78.4853 42 79.9999 43.0146 79.9999 45.4999Z" fill="#4845DD"/>
<path d="M94 67.5C94 69.9853 91.9853 72 89.5 72C87.0147 72 85 70.9853 85 68.5C85 66.0147 87.0147 64 89.5 64C91.9853 64 94 65.0147 94 67.5Z" fill="#4845DD"/>
</g>
</svg>
