<svg width="22" height="22" viewBox="0 0 22 22" fill="none" xmlns="http://www.w3.org/2000/svg">
<path fill-rule="evenodd" clip-rule="evenodd" d="M6.47413 13.8079C7.67436 12.6076 9.30222 11.9333 10.9996 11.9333C12.697 11.9333 14.3249 12.6076 15.5251 13.8079C16.7253 15.0081 17.3996 16.636 17.3996 18.3333C17.3996 18.8304 16.9967 19.2333 16.4996 19.2333C16.0026 19.2333 15.5996 18.8304 15.5996 18.3333C15.5996 17.1134 15.115 15.9433 14.2523 15.0807C13.3896 14.218 12.2196 13.7333 10.9996 13.7333C9.77961 13.7333 8.60959 14.218 7.74692 15.0807C6.88425 15.9433 6.39961 17.1134 6.39961 18.3333C6.39961 18.8304 5.99667 19.2333 5.49961 19.2333C5.00255 19.2333 4.59961 18.8304 4.59961 18.3333C4.59961 16.636 5.27389 15.0081 6.47413 13.8079Z" fill="#030612"/>
<path fill-rule="evenodd" clip-rule="evenodd" d="M11.0003 6.39998C9.47227 6.39998 8.23359 7.63865 8.23359 9.16664C8.23359 10.6946 9.47227 11.9333 11.0003 11.9333C12.5282 11.9333 13.7669 10.6946 13.7669 9.16664C13.7669 7.63865 12.5282 6.39998 11.0003 6.39998ZM6.43359 9.16664C6.43359 6.64454 8.47816 4.59998 11.0003 4.59998C13.5224 4.59998 15.5669 6.64454 15.5669 9.16664C15.5669 11.6887 13.5224 13.7333 11.0003 13.7333C8.47816 13.7333 6.43359 11.6887 6.43359 9.16664Z" fill="#030612"/>
<path fill-rule="evenodd" clip-rule="evenodd" d="M11.0003 2.73335C6.43471 2.73335 2.73359 6.43446 2.73359 11C2.73359 15.5656 6.43471 19.2667 11.0003 19.2667C15.5658 19.2667 19.2669 15.5656 19.2669 11C19.2669 6.43446 15.5658 2.73335 11.0003 2.73335ZM0.933594 11C0.933594 5.44035 5.44059 0.93335 11.0003 0.93335C16.5599 0.93335 21.0669 5.44035 21.0669 11C21.0669 16.5597 16.5599 21.0667 11.0003 21.0667C5.44059 21.0667 0.933594 16.5597 0.933594 11Z" fill="#030612"/>
</svg>
