<svg width="18" height="18" viewBox="0 0 18 18" fill="none" xmlns="http://www.w3.org/2000/svg">
<path d="M2.25 16.5H11.25" stroke="#030612" stroke-width="1.2" stroke-linecap="round" stroke-linejoin="round"/>
<path d="M3 6.75H10.5" stroke="#030612" stroke-width="1.2" stroke-linecap="round" stroke-linejoin="round"/>
<path d="M10.5 16.5V3C10.5 2.60218 10.342 2.22064 10.0607 1.93934C9.77936 1.65804 9.39782 1.5 9 1.5H4.5C4.10218 1.5 3.72064 1.65804 3.43934 1.93934C3.15804 2.22064 3 2.60218 3 3V16.5" stroke="#030612" stroke-width="1.2" stroke-linecap="round" stroke-linejoin="round"/>
<path d="M10.5 9.75H12C12.3978 9.75 12.7794 9.90804 13.0607 10.1893C13.342 10.4706 13.5 10.8522 13.5 11.25V12.75C13.5 13.1478 13.658 13.5294 13.9393 13.8107C14.2206 14.092 14.6022 14.25 15 14.25C15.3978 14.25 15.7794 14.092 16.0607 13.8107C16.342 13.5294 16.5 13.1478 16.5 12.75V7.3725C16.5002 7.17457 16.4611 6.97856 16.3852 6.79577C16.3092 6.61299 16.1979 6.44704 16.0575 6.3075L13.5 3.75" stroke="#030612" stroke-width="1.2" stroke-linecap="round" stroke-linejoin="round"/>
</svg>
