<svg width="18" height="18" viewBox="0 0 18 18" fill="none" xmlns="http://www.w3.org/2000/svg">
<path d="M8.99994 3.75008C9.50244 3.75008 10.0124 3.81758 10.4999 3.94508C11.8349 2.44508 14.2724 1.81508 15.3149 2.25008C16.3649 2.68508 14.9999 7.50008 14.9999 7.50008C15.4274 8.30258 15.7499 9.18008 15.7499 10.0801C15.7499 13.4251 12.7274 15.7501 8.99994 15.7501C5.27244 15.7501 2.24994 13.5001 2.24994 10.0801C2.24994 9.14258 2.62494 8.28008 2.99994 7.50008C2.99994 7.50008 1.58244 2.68508 2.62494 2.25008C3.66744 1.81508 6.16494 2.42258 7.49994 3.92258C7.99195 3.80941 8.49507 3.75155 8.99994 3.75008Z" stroke="#030612" stroke-width="1.2" stroke-linecap="round" stroke-linejoin="round"/>
<path d="M6 10.5V10.875" stroke="#030612" stroke-width="1.2" stroke-linecap="round" stroke-linejoin="round"/>
<path d="M12 10.5V10.875" stroke="#030612" stroke-width="1.2" stroke-linecap="round" stroke-linejoin="round"/>
<path d="M8.4375 12.1875H9.5625L9 12.75L8.4375 12.1875Z" stroke="#030612" stroke-width="1.2" stroke-linecap="round" stroke-linejoin="round"/>
</svg>
