<svg width="18" height="19" viewBox="0 0 18 19" fill="none" xmlns="http://www.w3.org/2000/svg">
<path fill-rule="evenodd" clip-rule="evenodd" d="M5.9999 10.3398C6.33127 10.3398 6.5999 10.6085 6.5999 10.9398V11.3148C6.5999 11.6462 6.33127 11.9148 5.9999 11.9148C5.66853 11.9148 5.3999 11.6462 5.3999 11.3148V10.9398C5.3999 10.6085 5.66853 10.3398 5.9999 10.3398Z" fill="#030612"/>
<path fill-rule="evenodd" clip-rule="evenodd" d="M11.9999 10.3398C12.3313 10.3398 12.5999 10.6085 12.5999 10.9398V11.3148C12.5999 11.6462 12.3313 11.9148 11.9999 11.9148C11.6685 11.9148 11.3999 11.6462 11.3999 11.3148V10.9398C11.3999 10.6085 11.6685 10.3398 11.9999 10.3398Z" fill="#030612"/>
<path fill-rule="evenodd" clip-rule="evenodd" d="M7.88309 12.3977C7.97596 12.1735 8.19474 12.0273 8.43742 12.0273H9.56242C9.8051 12.0273 10.0239 12.1735 10.1167 12.3977C10.2096 12.6219 10.1583 12.88 9.98668 13.0516L9.42418 13.6141C9.18987 13.8484 8.80997 13.8484 8.57566 13.6141L8.01316 13.0516C7.84156 12.88 7.79022 12.6219 7.88309 12.3977Z" fill="#030612"/>
</svg>
