<svg width="23" height="22" viewBox="0 0 23 22" fill="none" xmlns="http://www.w3.org/2000/svg">
<path fill-rule="evenodd" clip-rule="evenodd" d="M1.4998 4.3C1.8864 4.3 2.1998 4.6134 2.1998 5V19C2.1998 19.3448 2.33677 19.6754 2.58057 19.9192C2.82436 20.163 3.15502 20.3 3.4998 20.3H17.4998C17.8864 20.3 18.1998 20.6134 18.1998 21C18.1998 21.3866 17.8864 21.7 17.4998 21.7H3.4998C2.78372 21.7 2.09696 21.4155 1.59062 20.9092C1.08427 20.4028 0.799805 19.7161 0.799805 19V5C0.799805 4.6134 1.11321 4.3 1.4998 4.3Z" fill="white"/>
<path fill-rule="evenodd" clip-rule="evenodd" d="M16.3009 10.209C16.8841 9.62584 17.6751 9.29825 18.4998 9.29825C19.3245 9.29825 20.1155 9.62584 20.6987 10.209L20.6988 10.209L21.9948 11.505C22.2681 11.7784 22.2681 12.2216 21.9948 12.495C21.7214 12.7683 21.2782 12.7683 21.0048 12.495L19.7089 11.199C19.7089 11.199 19.7088 11.199 19.7088 11.199C19.3882 10.8784 18.9533 10.6982 18.4998 10.6982C18.0463 10.6982 17.6114 10.8784 17.2907 11.199L10.9948 17.495C10.7214 17.7683 10.2782 17.7683 10.0048 17.495C9.73146 17.2216 9.73146 16.7784 10.0048 16.505L16.3008 10.209L16.3009 10.209Z" fill="white"/>
<path fill-rule="evenodd" clip-rule="evenodd" d="M11.4998 5.7C10.7818 5.7 10.1998 6.28203 10.1998 7C10.1998 7.71797 10.7818 8.3 11.4998 8.3C12.2178 8.3 12.7998 7.71797 12.7998 7C12.7998 6.28203 12.2178 5.7 11.4998 5.7ZM8.7998 7C8.7998 5.50883 10.0086 4.3 11.4998 4.3C12.991 4.3 14.1998 5.50883 14.1998 7C14.1998 8.49117 12.991 9.7 11.4998 9.7C10.0086 9.7 8.7998 8.49117 8.7998 7Z" fill="white"/>
<path fill-rule="evenodd" clip-rule="evenodd" d="M7.4998 1.7C6.78183 1.7 6.1998 2.28203 6.1998 3V15C6.1998 15.718 6.78183 16.3 7.4998 16.3H19.4998C20.2178 16.3 20.7998 15.718 20.7998 15V3C20.7998 2.28203 20.2178 1.7 19.4998 1.7H7.4998ZM4.7998 3C4.7998 1.50883 6.00864 0.300003 7.4998 0.300003H19.4998C20.991 0.300003 22.1998 1.50883 22.1998 3V15C22.1998 16.4912 20.991 17.7 19.4998 17.7H7.4998C6.00864 17.7 4.7998 16.4912 4.7998 15V3Z" fill="white"/>
</svg>
