<svg width="42" height="42" viewBox="0 0 42 42" fill="none" xmlns="http://www.w3.org/2000/svg">
<path fill-rule="evenodd" clip-rule="evenodd" d="M21 2C10.5066 2 2 10.5066 2 21C2 31.4934 10.5066 40 21 40C31.4934 40 40 31.4934 40 21C40 10.5066 31.4934 2 21 2ZM0 21C0 9.40202 9.40202 0 21 0C32.598 0 42 9.40202 42 21C42 32.598 32.598 42 21 42C9.40202 42 0 32.598 0 21Z" fill="#030612"/>
<path fill-rule="evenodd" clip-rule="evenodd" d="M14.5369 26.1913C16.0223 25.1109 18.2245 24 21.0001 24C23.7756 24 25.9778 25.1109 27.4632 26.1913C28.2079 26.7328 28.7834 27.2743 29.1752 27.6831C29.3715 27.8879 29.5228 28.0607 29.6274 28.1853C29.6797 28.2476 29.7204 28.2979 29.7492 28.3344C29.7636 28.3526 29.7751 28.3673 29.7836 28.3784L29.7941 28.3921L29.7976 28.3968L29.799 28.3986L29.7996 28.3993C29.7998 28.3997 29.8001 28.4 29.0354 28.9735L29.8001 28.4C30.1314 28.8418 30.0419 29.4686 29.6001 29.8C29.1589 30.1309 28.5333 30.0421 28.2016 29.602C28.2011 29.6013 28.2006 29.6007 28.2001 29.6L29.0001 29C28.2001 29.6 28.2003 29.6003 28.2005 29.6006L28.2009 29.6011L28.199 29.5987L28.1811 29.5758C28.1636 29.5536 28.1349 29.5181 28.0954 29.471C28.0164 29.3768 27.8943 29.2371 27.7312 29.0669C27.4042 28.7257 26.9172 28.2672 26.2869 27.8087C25.0223 26.8891 23.2245 26 21.0001 26C18.7756 26 16.9778 26.8891 15.7132 27.8087C15.0829 28.2672 14.5959 28.7257 14.2689 29.0669C14.1058 29.2371 13.9838 29.3768 13.9047 29.471C13.8652 29.5181 13.8366 29.5536 13.819 29.5758L13.8011 29.5987L13.8001 29.6C13.7999 29.6002 13.7998 29.6004 13.7996 29.6006C13.7998 29.6003 13.8001 29.6 13.0001 29L12.2001 28.4C11.8687 28.8418 11.9582 29.4686 12.4001 29.8C12.8417 30.1312 13.4681 30.0419 13.7996 29.6006M13.0001 29C12.2001 28.4 12.2003 28.3997 12.2006 28.3993L12.2011 28.3986L12.2025 28.3968L12.2061 28.3921L12.2165 28.3784C12.225 28.3673 12.2365 28.3526 12.2509 28.3344C12.2798 28.2979 12.3205 28.2476 12.3728 28.1853C12.4773 28.0607 12.6287 27.8879 12.8249 27.6831C13.2167 27.2743 13.7922 26.7328 14.5369 26.1913" fill="#030612"/>
<path fill-rule="evenodd" clip-rule="evenodd" d="M14 15C14 14.4477 14.4477 14 15 14H15.02C15.5723 14 16.02 14.4477 16.02 15C16.02 15.5523 15.5723 16 15.02 16H15C14.4477 16 14 15.5523 14 15Z" fill="#030612"/>
<path fill-rule="evenodd" clip-rule="evenodd" d="M26 15C26 14.4477 26.4477 14 27 14H27.02C27.5723 14 28.02 14.4477 28.02 15C28.02 15.5523 27.5723 16 27.02 16H27C26.4477 16 26 15.5523 26 15Z" fill="#030612"/>
</svg>
