<svg width="19" height="19" viewBox="0 0 19 19" fill="none" xmlns="http://www.w3.org/2000/svg">
<path fill-rule="evenodd" clip-rule="evenodd" d="M2.34326 10.4398C2.34326 10.1085 2.61189 9.83984 2.94326 9.83984L12.9433 9.83984C13.2746 9.83984 13.5433 10.1085 13.5433 10.4398C13.5433 10.7712 13.2746 11.0398 12.9433 11.0398L3.54326 11.0398L3.54326 12.8398L12.9433 12.8398C13.2746 12.8398 13.5433 13.1085 13.5433 13.4398C13.5433 13.7712 13.2746 14.0398 12.9433 14.0398L2.94326 14.0398C2.61189 14.0398 2.34326 13.7712 2.34326 13.4398L2.34326 10.4398Z" fill="#030612"/>
<path fill-rule="evenodd" clip-rule="evenodd" d="M15.9433 9.83984C16.2746 9.83984 16.5433 10.1085 16.5433 10.4398L16.5433 13.4398C16.5433 13.7712 16.2746 14.0398 15.9433 14.0398C15.6119 14.0398 15.3433 13.7712 15.3433 13.4398L15.3433 10.4398C15.3433 10.1085 15.6119 9.83984 15.9433 9.83984Z" fill="#030612"/>
<path fill-rule="evenodd" clip-rule="evenodd" d="M5.94326 9.83984C6.27463 9.83984 6.54326 10.1085 6.54326 10.4398L6.54326 13.4398C6.54326 13.7712 6.27463 14.0398 5.94326 14.0398C5.61189 14.0398 5.34326 13.7712 5.34326 13.4398L5.34326 10.4398C5.34326 10.1085 5.61189 9.83984 5.94326 9.83984Z" fill="#030612"/>
<path fill-rule="evenodd" clip-rule="evenodd" d="M10.9433 2.83984C11.2746 2.83984 11.5433 3.10847 11.5433 3.43984C11.5433 4.17603 11.8738 4.52188 12.3675 5.01558C12.3735 5.02154 12.3795 5.02751 12.3855 5.03351C12.8895 5.53736 13.5433 6.1909 13.5433 7.43984C13.5433 7.77121 13.2746 8.03984 12.9433 8.03984C12.6119 8.03984 12.3433 7.77121 12.3433 7.43984C12.3433 6.70365 12.0127 6.3578 11.519 5.86411C11.513 5.85815 11.5071 5.85217 11.5011 5.84618C10.997 5.34233 10.3433 4.68879 10.3433 3.43984C10.3433 3.10847 10.6119 2.83984 10.9433 2.83984Z" fill="#030612"/>
<path fill-rule="evenodd" clip-rule="evenodd" d="M13.9433 2.83984C14.2746 2.83984 14.5433 3.10847 14.5433 3.43984C14.5433 4.17603 14.8738 4.52188 15.3675 5.01558C15.3735 5.02154 15.3795 5.02751 15.3855 5.03351C15.8895 5.53736 16.5433 6.1909 16.5433 7.43984C16.5433 7.77121 16.2746 8.03984 15.9433 8.03984C15.6119 8.03984 15.3433 7.77121 15.3433 7.43984C15.3433 6.70365 15.0127 6.3578 14.519 5.86411C14.513 5.85815 14.5071 5.85217 14.5011 5.84618C13.997 5.34233 13.3433 4.68879 13.3433 3.43984C13.3433 3.10847 13.6119 2.83984 13.9433 2.83984Z" fill="#030612"/>
</svg>
