<svg width="16" height="16" viewBox="0 0 16 16" fill="none" xmlns="http://www.w3.org/2000/svg">
<path d="M12.6666 11.3337H13.9999C14.3999 11.3337 14.6666 11.067 14.6666 10.667V8.66699C14.6666 8.06699 14.1999 7.53366 13.6666 7.40033C12.4666 7.06699 10.6666 6.66699 10.6666 6.66699C10.6666 6.66699 9.79992 5.73366 9.19992 5.13366C8.86658 4.86699 8.46658 4.66699 7.99992 4.66699H3.33325C2.93325 4.66699 2.59992 4.93366 2.39992 5.26699L1.46659 7.20033C1.37831 7.45781 1.33325 7.72813 1.33325 8.00033V10.667C1.33325 11.067 1.59992 11.3337 1.99992 11.3337H3.33325" stroke="#030612" stroke-width="1.25" stroke-linecap="round" stroke-linejoin="round"/>
<path d="M4.66665 12.6667C5.40303 12.6667 5.99998 12.0697 5.99998 11.3333C5.99998 10.597 5.40303 10 4.66665 10C3.93027 10 3.33331 10.597 3.33331 11.3333C3.33331 12.0697 3.93027 12.6667 4.66665 12.6667Z" stroke="#030612" stroke-width="1.25" stroke-linecap="round" stroke-linejoin="round"/>
<path d="M6 11.333H10" stroke="#030612" stroke-width="1.25" stroke-linecap="round" stroke-linejoin="round"/>
<path d="M11.3333 12.6667C12.0697 12.6667 12.6667 12.0697 12.6667 11.3333C12.6667 10.597 12.0697 10 11.3333 10C10.597 10 10 10.597 10 11.3333C10 12.0697 10.597 12.6667 11.3333 12.6667Z" stroke="#030612" stroke-width="1.25" stroke-linecap="round" stroke-linejoin="round"/>
</svg>
