<svg width="16" height="16" viewBox="0 0 16 16" fill="none" xmlns="http://www.w3.org/2000/svg">
<path fill-rule="evenodd" clip-rule="evenodd" d="M5.26271 3.97776L4.62065 3.3357C4.01713 2.73218 3.03862 2.73218 2.4351 3.3357C1.83157 3.93922 1.83157 4.91773 2.4351 5.52125L2.49015 5.57631L5.26271 3.97776ZM3.20947 6.29563L5.98203 4.69708L11.9557 10.6707L8.82275 11.9089L3.20947 6.29563ZM9.78405 14.2596C10.7712 15.2468 12.3718 15.2468 13.359 14.2596C14.3462 13.2724 14.3462 11.6718 13.359 10.6846L5.31535 2.641C4.32815 1.6538 2.72759 1.6538 1.7404 2.641C0.797013 3.58438 0.755145 5.0879 1.61479 6.081C1.65472 6.12712 1.69659 6.17214 1.7404 6.21596L9.78405 14.2596ZM9.57991 12.6661L10.4787 13.5649C11.0823 14.1684 12.0608 14.1684 12.6643 13.5649C13.2678 12.9614 13.2678 11.9829 12.6643 11.3793L12.5696 11.2847L12.6379 11.4575L9.57991 12.6661Z" fill="#030612"/>
<path fill-rule="evenodd" clip-rule="evenodd" d="M12.6643 11.3793L4.62065 3.3357C4.01713 2.73218 3.03862 2.73218 2.4351 3.3357C1.83157 3.93922 1.83157 4.91773 2.4351 5.52125L10.4787 13.5649C11.0823 14.1684 12.0608 14.1684 12.6643 13.5649C13.2678 12.9614 13.2678 11.9829 12.6643 11.3793ZM1.7404 2.641C0.753201 3.6282 0.753201 5.22876 1.7404 6.21596L9.78405 14.2596C10.7712 15.2468 12.3718 15.2468 13.359 14.2596C14.3462 13.2724 14.3462 11.6718 13.359 10.6846L5.31535 2.641C4.32815 1.6538 2.72759 1.6538 1.7404 2.641Z" fill="#030612"/>
<path fill-rule="evenodd" clip-rule="evenodd" d="M10.0789 1.13316C10.2767 0.947431 10.5876 0.957184 10.7733 1.15494L12.2525 2.73002L2.91724 12.0653C3.04501 12.154 3.12867 12.3018 3.12867 12.4691C3.12867 12.7404 2.90874 12.9604 2.63744 12.9604H1.3275V11.7251C1.3275 11.4538 1.54743 11.2339 1.81873 11.2339C1.96692 11.2339 2.09979 11.2995 2.18986 11.4033L10.8846 2.70857L10.0571 1.82752C9.87141 1.62976 9.88116 1.31888 10.0789 1.13316ZM13.27 3.74746L14.8451 5.22672C15.0428 5.41245 15.0526 5.72332 14.8668 5.92108C14.6811 6.11884 14.3702 6.12859 14.1725 5.94286L13.2914 5.11541L4.5967 13.8101C4.70047 13.9002 4.76609 14.0331 4.76609 14.1813C4.76609 14.4526 4.54616 14.6725 4.27487 14.6725H3.08242L2.96696 13.4072C2.9423 13.137 3.14134 12.898 3.41151 12.8734C3.61334 12.8549 3.79777 12.9614 3.88844 13.129L13.27 3.74746Z" fill="#030612"/>
</svg>
