<svg width="16" height="16" viewBox="0 0 16 16" fill="none" xmlns="http://www.w3.org/2000/svg">
<path d="M1.33325 5.99967C1.86368 5.99967 2.37239 6.21039 2.74747 6.58546C3.12254 6.96053 3.33325 7.46924 3.33325 7.99967C3.33325 8.53011 3.12254 9.03881 2.74747 9.41389C2.37239 9.78896 1.86368 9.99967 1.33325 9.99967V11.333C1.33325 11.6866 1.47373 12.0258 1.72378 12.2758C1.97382 12.5259 2.31296 12.6663 2.66659 12.6663H13.3333C13.6869 12.6663 14.026 12.5259 14.2761 12.2758C14.5261 12.0258 14.6666 11.6866 14.6666 11.333V9.99967C14.1362 9.99967 13.6274 9.78896 13.2524 9.41389C12.8773 9.03881 12.6666 8.53011 12.6666 7.99967C12.6666 7.46924 12.8773 6.96053 13.2524 6.58546C13.6274 6.21039 14.1362 5.99967 14.6666 5.99967V4.66634C14.6666 4.31272 14.5261 3.97358 14.2761 3.72353C14.026 3.47348 13.6869 3.33301 13.3333 3.33301H2.66659C2.31296 3.33301 1.97382 3.47348 1.72378 3.72353C1.47373 3.97358 1.33325 4.31272 1.33325 4.66634V5.99967Z" stroke="#030612" stroke-width="1.25" stroke-linecap="round" stroke-linejoin="round"/>
<path d="M6 8.00033L7.33333 9.33366L10 6.66699" stroke="#030612" stroke-width="1.25" stroke-linecap="round" stroke-linejoin="round"/>
</svg>
