<svg width="18" height="18" viewBox="0 0 18 18" fill="none" xmlns="http://www.w3.org/2000/svg">
<path d="M1.5 15V9C1.5 8.60218 1.65804 8.22064 1.93934 7.93934C2.22064 7.65804 2.60218 7.5 3 7.5H15C15.3978 7.5 15.7794 7.65804 16.0607 7.93934C16.342 8.22064 16.5 8.60218 16.5 9V15" stroke="#030612" stroke-width="1.2" stroke-linecap="round" stroke-linejoin="round"/>
<path d="M3 7.5V4.5C3 4.10218 3.15804 3.72064 3.43934 3.43934C3.72064 3.15804 4.10218 3 4.5 3H13.5C13.8978 3 14.2794 3.15804 14.5607 3.43934C14.842 3.72064 15 4.10218 15 4.5V7.5" stroke="#030612" stroke-width="1.2" stroke-linecap="round" stroke-linejoin="round"/>
<path d="M9 3V7.5" stroke="#030612" stroke-width="1.2" stroke-linecap="round" stroke-linejoin="round"/>
<path d="M1.5 13.5H16.5" stroke="#030612" stroke-width="1.2" stroke-linecap="round" stroke-linejoin="round"/>
</svg>
