<svg width="14" height="14" viewBox="0 0 14 14" fill="none" xmlns="http://www.w3.org/2000/svg">
<path fill-rule="evenodd" clip-rule="evenodd" d="M11.4412 0.402639C12.0584 0.212724 12.743 0.172736 13.2795 0.440984C13.4005 0.501461 13.4985 0.599537 13.559 0.720492C13.8273 1.25699 13.7873 1.94158 13.5974 2.5588C13.4004 3.19892 13.0133 3.87061 12.4419 4.44194L10.3505 6.53342L11.4796 11.6774C11.6023 12.2909 11.3288 12.7847 10.9083 13.1C10.8644 13.1329 10.8164 13.1599 10.7655 13.1803L10.4321 13.3136C9.89162 13.5298 9.23612 13.4454 8.83334 12.9083C8.82585 12.8984 8.81867 12.8882 8.8118 12.8777L6.82438 9.86824L5.625 10.6678V12.3333C5.625 12.4991 5.55916 12.6581 5.44195 12.7753L4.77528 13.4419C4.64288 13.5743 4.45809 13.6404 4.27175 13.622C4.08542 13.6035 3.91717 13.5025 3.81331 13.3467L2.54931 11.4507L0.653316 10.1867C0.497518 10.0828 0.396496 9.91459 0.378045 9.72825C0.359594 9.54192 0.425659 9.35713 0.558062 9.22473L1.22473 8.55806C1.34194 8.44085 1.50091 8.375 1.66667 8.375H3.33218L4.13177 7.17562L1.12226 5.18821C1.11185 5.18133 1.10165 5.17415 1.09167 5.16667C0.554621 4.76388 0.470174 4.10838 0.686372 3.56788C0.698752 3.53693 0.713587 3.50702 0.730737 3.47844L0.920224 3.16263C1.19262 2.64391 1.74095 2.40415 2.32258 2.52047L2.33403 2.52276L7.46659 3.64953L9.55806 1.55806C10.1294 0.986731 10.8011 0.599597 11.4412 0.402639ZM11.8088 1.59736C11.3656 1.73374 10.8706 2.01327 10.4419 2.44194L8.10861 4.77528C7.95792 4.92597 7.74082 4.98949 7.53267 4.9438L2.07321 3.74538C2.05093 3.74124 2.03618 3.74106 2.02815 3.74152C2.0274 3.74286 2.02657 3.74441 2.02569 3.74618C2.01853 3.76048 2.01083 3.77451 2.0026 3.78823L1.83448 4.06843C1.82163 4.11367 1.82505 4.13993 1.82679 4.14775C1.82787 4.15262 1.82897 4.15432 1.82934 4.1549C1.82954 4.1552 1.83075 4.15712 1.83408 4.16031L5.34442 6.47846C5.48313 6.57007 5.57964 6.71316 5.6126 6.87609C5.64555 7.03902 5.61224 7.20837 5.52003 7.34669L4.1867 9.34669C4.07079 9.52056 3.87564 9.625 3.66667 9.625H2.06424L3.34669 10.48C3.41535 10.5257 3.47426 10.5847 3.52003 10.6533L4.375 11.9358V10.3333C4.375 10.1244 4.47944 9.92922 4.65332 9.8133L6.65332 8.47997C6.79163 8.38776 6.96098 8.35445 7.12391 8.38741C7.28685 8.42036 7.42994 8.51687 7.52154 8.65559L9.83969 12.1659C9.84282 12.1692 9.8447 12.1704 9.84506 12.1706C9.84564 12.171 9.84739 12.1721 9.85225 12.1732C9.86198 12.1754 9.90016 12.1801 9.96788 12.153L10.2094 12.0564C10.2375 12.0285 10.2484 12.0086 10.2524 11.9995C10.2557 11.992 10.2634 11.974 10.2546 11.9268L9.05621 6.46734C9.01051 6.25918 9.07403 6.04209 9.22473 5.89139L11.5581 3.55806C11.9867 3.12939 12.2663 2.63441 12.4026 2.1912C12.4919 1.9012 12.5101 1.66954 12.4955 1.50453C12.3305 1.4899 12.0988 1.50813 11.8088 1.59736Z" fill="#030612"/>
</svg>
