<svg width="16" height="12" viewBox="0 0 16 12" fill="none" xmlns="http://www.w3.org/2000/svg">
<path fill-rule="evenodd" clip-rule="evenodd" d="M1.28183 1.28159C1.64909 0.914331 2.1472 0.708008 2.66659 0.708008H13.3333C13.8526 0.708008 14.3507 0.914332 14.718 1.28159C15.0853 1.64885 15.2916 2.14696 15.2916 2.66634V3.99967C15.2916 4.34485 15.0118 4.62467 14.6666 4.62467C14.3019 4.62467 13.9522 4.76954 13.6943 5.0274C13.4365 5.28526 13.2916 5.635 13.2916 5.99967C13.2916 6.36435 13.4365 6.71408 13.6943 6.97195C13.9522 7.22981 14.3019 7.37467 14.6666 7.37467C15.0118 7.37467 15.2916 7.6545 15.2916 7.99967V9.33301C15.2916 9.85239 15.0853 10.3505 14.718 10.7178C14.3507 11.085 13.8526 11.2913 13.3333 11.2913H2.66659C2.1472 11.2913 1.64909 11.085 1.28183 10.7178C0.914576 10.3505 0.708252 9.85239 0.708252 9.33301V7.99967C0.708252 7.6545 0.988074 7.37467 1.33325 7.37467C1.69792 7.37467 2.04766 7.22981 2.30552 6.97195C2.56339 6.71408 2.70825 6.36435 2.70825 5.99967C2.70825 5.635 2.56339 5.28526 2.30552 5.0274C2.04766 4.76954 1.69792 4.62467 1.33325 4.62467C0.988074 4.62467 0.708252 4.34485 0.708252 3.99967V2.66634C0.708252 2.14696 0.914576 1.64885 1.28183 1.28159ZM2.66659 1.95801C2.47872 1.95801 2.29856 2.03264 2.16572 2.16547C2.03288 2.29831 1.95825 2.47848 1.95825 2.66634V3.45016C2.42048 3.56348 2.8473 3.80141 3.18941 4.14352C3.68169 4.6358 3.95825 5.30348 3.95825 5.99967C3.95825 6.69587 3.68169 7.36355 3.18941 7.85583C2.8473 8.19794 2.42048 8.43587 1.95825 8.54919V9.33301C1.95825 9.52087 2.03288 9.70104 2.16572 9.83387C2.29856 9.96671 2.47872 10.0413 2.66659 10.0413H13.3333C13.5211 10.0413 13.7013 9.96671 13.8341 9.83387C13.967 9.70103 14.0416 9.52087 14.0416 9.33301V8.54919C13.5794 8.43587 13.1525 8.19794 12.8104 7.85583C12.3181 7.36355 12.0416 6.69587 12.0416 5.99967C12.0416 5.30348 12.3181 4.6358 12.8104 4.14352C13.1525 3.80141 13.5794 3.56348 14.0416 3.45016V2.66634C14.0416 2.47848 13.967 2.29831 13.8341 2.16547C13.7013 2.03264 13.5211 1.95801 13.3333 1.95801H2.66659Z" fill="#030612"/>
<path fill-rule="evenodd" clip-rule="evenodd" d="M10.4419 4.22505C10.686 4.46913 10.686 4.86486 10.4419 5.10893L7.77528 7.7756C7.5312 8.01968 7.13547 8.01968 6.89139 7.7756L5.55806 6.44227C5.31398 6.19819 5.31398 5.80246 5.55806 5.55838C5.80214 5.31431 6.19786 5.31431 6.44194 5.55838L7.33333 6.44978L9.55806 4.22505C9.80214 3.98097 10.1979 3.98097 10.4419 4.22505Z" fill="#030612"/>
</svg>
