<svg width="16" height="12" viewBox="0 0 16 12" fill="none" xmlns="http://www.w3.org/2000/svg">
<path fill-rule="evenodd" clip-rule="evenodd" d="M1.33325 0.0419922C1.67843 0.0419922 1.95825 0.321814 1.95825 0.666992V11.3337C1.95825 11.6788 1.67843 11.9587 1.33325 11.9587C0.988074 11.9587 0.708252 11.6788 0.708252 11.3337V0.666992C0.708252 0.321814 0.988074 0.0419922 1.33325 0.0419922Z" fill="#030612"/>
<path fill-rule="evenodd" clip-rule="evenodd" d="M0.708252 3.33301C0.708252 2.98783 0.988074 2.70801 1.33325 2.70801H13.3333C13.8526 2.70801 14.3507 2.91433 14.718 3.28159C15.0853 3.64885 15.2916 4.14696 15.2916 4.66634V11.333C15.2916 11.6782 15.0118 11.958 14.6666 11.958C14.3214 11.958 14.0416 11.6782 14.0416 11.333V4.66634C14.0416 4.47848 13.967 4.29831 13.8341 4.16547C13.7013 4.03264 13.5211 3.95801 13.3333 3.95801H1.33325C0.988074 3.95801 0.708252 3.67819 0.708252 3.33301Z" fill="#030612"/>
<path fill-rule="evenodd" clip-rule="evenodd" d="M0.708252 9.33301C0.708252 8.98783 0.988074 8.70801 1.33325 8.70801H14.6666C15.0118 8.70801 15.2916 8.98783 15.2916 9.33301C15.2916 9.67819 15.0118 9.95801 14.6666 9.95801H1.33325C0.988074 9.95801 0.708252 9.67819 0.708252 9.33301Z" fill="#030612"/>
<path fill-rule="evenodd" clip-rule="evenodd" d="M4 2.70801C4.34518 2.70801 4.625 2.98783 4.625 3.33301V9.33301C4.625 9.67819 4.34518 9.95801 4 9.95801C3.65482 9.95801 3.375 9.67819 3.375 9.33301V3.33301C3.375 2.98783 3.65482 2.70801 4 2.70801Z" fill="#030612"/>
</svg>
