<svg width="16" height="10" viewBox="0 0 16 10" fill="none" xmlns="http://www.w3.org/2000/svg">
<path fill-rule="evenodd" clip-rule="evenodd" d="M1.86399 0.945432C2.13204 0.498667 2.63863 0.0419922 3.33325 0.0419922H7.99992C8.65504 0.0419922 9.18901 0.324545 9.59035 0.645616C9.60836 0.660021 9.62555 0.675411 9.64186 0.691717C9.94823 0.998082 10.3197 1.38656 10.6123 1.69583C10.7591 1.85101 10.887 1.98729 10.9782 2.08481L10.992 2.09955C11.0259 2.10723 11.0638 2.11584 11.1054 2.12531C11.2941 2.1683 11.5583 2.22909 11.8602 2.30038C12.4598 2.44195 13.2159 2.62667 13.8269 2.79619C14.6131 2.99711 15.2916 3.76184 15.2916 4.66699V6.66699C15.2916 7.00902 15.1748 7.34261 14.9252 7.59227C14.6755 7.84192 14.3419 7.95866 13.9999 7.95866H12.6666C12.3214 7.95866 12.0416 7.67884 12.0416 7.33366C12.0416 6.98848 12.3214 6.70866 12.6666 6.70866H13.9999C14.0178 6.70866 14.0303 6.70694 14.0382 6.70526C14.0399 6.69733 14.0416 6.68484 14.0416 6.66699V4.66699C14.0416 4.37548 13.7917 4.07585 13.515 4.00666L13.4993 4.00252C12.9115 3.83923 12.1711 3.65816 11.573 3.51693C11.2749 3.44656 11.014 3.38652 10.8278 3.34409C10.7347 3.32288 10.6603 3.30609 10.6092 3.29462L10.531 3.27712C10.4073 3.24962 10.2948 3.18515 10.2086 3.09227L10.1709 3.05177L10.0654 2.93876C9.97535 2.84253 9.84908 2.70798 9.70421 2.55483C9.42188 2.25636 9.07258 1.89116 8.78375 1.60141C8.52694 1.40197 8.26914 1.29199 7.99992 1.29199H3.33325C3.23133 1.29199 3.07825 1.3637 2.94894 1.56735L2.04687 3.43592C1.98817 3.61823 1.95825 3.80866 1.95825 4.00033V6.66699C1.95825 6.68484 1.95997 6.69733 1.96165 6.70526C1.96958 6.70694 1.98207 6.70866 1.99992 6.70866H3.33325C3.67843 6.70866 3.95825 6.98848 3.95825 7.33366C3.95825 7.67884 3.67843 7.95866 3.33325 7.95866H1.99992C1.65789 7.95866 1.3243 7.84192 1.07464 7.59227C0.82499 7.34261 0.708252 7.00902 0.708252 6.66699V4.00033C0.708252 3.65916 0.764721 3.32035 0.875369 2.99762C0.883443 2.97407 0.892917 2.95103 0.903741 2.92861L1.83707 0.995274C1.84529 0.978262 1.85427 0.961631 1.86399 0.945432Z" fill="#030612"/>
<path fill-rule="evenodd" clip-rule="evenodd" d="M4.66665 6.625C4.27544 6.625 3.95831 6.94213 3.95831 7.33333C3.95831 7.72454 4.27544 8.04167 4.66665 8.04167C5.05785 8.04167 5.37498 7.72454 5.37498 7.33333C5.37498 6.94213 5.05785 6.625 4.66665 6.625ZM2.70831 7.33333C2.70831 6.25178 3.58509 5.375 4.66665 5.375C5.7482 5.375 6.62498 6.25178 6.62498 7.33333C6.62498 8.41489 5.7482 9.29167 4.66665 9.29167C3.58509 9.29167 2.70831 8.41489 2.70831 7.33333Z" fill="#030612"/>
<path fill-rule="evenodd" clip-rule="evenodd" d="M5.375 7.33301C5.375 6.98783 5.65482 6.70801 6 6.70801H10C10.3452 6.70801 10.625 6.98783 10.625 7.33301C10.625 7.67819 10.3452 7.95801 10 7.95801H6C5.65482 7.95801 5.375 7.67819 5.375 7.33301Z" fill="#030612"/>
<path fill-rule="evenodd" clip-rule="evenodd" d="M11.3333 6.625C10.9421 6.625 10.625 6.94213 10.625 7.33333C10.625 7.72454 10.9421 8.04167 11.3333 8.04167C11.7245 8.04167 12.0417 7.72454 12.0417 7.33333C12.0417 6.94213 11.7245 6.625 11.3333 6.625ZM9.375 7.33333C9.375 6.25178 10.2518 5.375 11.3333 5.375C12.4149 5.375 13.2917 6.25178 13.2917 7.33333C13.2917 8.41489 12.4149 9.29167 11.3333 9.29167C10.2518 9.29167 9.375 8.41489 9.375 7.33333Z" fill="#030612"/>
</svg>
